<?xml version="1.0" encoding="UTF-8" standalone="no"?>
<!-- Created with Inkscape (http://www.inkscape.org/) -->

<svg
   width="120.33411mm"
   height="80.907295mm"
   viewBox="0 0 120.33411 80.907295"
   version="1.1"
   id="svg1"
   inkscape:export-filename="aw-simple.svg"
   inkscape:export-xdpi="96"
   inkscape:export-ydpi="96"
   sodipodi:docname="aw-simple-white.svg"
   xmlns:inkscape="http://www.inkscape.org/namespaces/inkscape"
   xmlns:sodipodi="http://sodipodi.sourceforge.net/DTD/sodipodi-0.dtd"
   xmlns="http://www.w3.org/2000/svg"
   xmlns:svg="http://www.w3.org/2000/svg">
  <sodipodi:namedview
     id="namedview1"
     pagecolor="#ffffff"
     bordercolor="#000000"
     borderopacity="0.25"
     inkscape:showpageshadow="2"
     inkscape:pageopacity="0.0"
     inkscape:pagecheckerboard="0"
     inkscape:deskcolor="#d1d1d1"
     inkscape:document-units="mm" />
  <defs
     id="defs1">
    <clipPath
       clipPathUnits="userSpaceOnUse"
       id="clipPath68">
      <path
         d="M 0,1318 H 1322.068 V 0 H 0 Z"
         transform="translate(-253.5181,-576.95561)"
         id="path68" />
    </clipPath>
    <clipPath
       clipPathUnits="userSpaceOnUse"
       id="clipPath6">
      <path
         d="M 0,1318 H 1322.068 V 0 H 0 Z"
         transform="translate(-502.49362,-884.95512)"
         id="path6" />
    </clipPath>
  </defs>
  <g
     inkscape:label="Layer 1"
     inkscape:groupmode="layer"
     id="layer1"
     transform="translate(-47.52222,-17.437632)">
    <path
       id="path5"
       d="M 0,0 C 1.679,-1.336 2.467,-2.179 3.43,-2.693 9.079,-5.709 18.003,-2.429 20.451,3.561 20.674,4.107 20.636,5.207 20.303,5.43 19.755,5.799 18.795,5.895 18.136,5.692 16.016,5.037 13.983,4.102 11.864,3.442 8.303,2.334 4.701,1.355 0,0 m 137.618,-77.226 c 0.923,-6.155 1.284,-12.492 2.892,-18.494 3.6,-13.441 7.876,-26.644 13.102,-39.627 5.063,-12.577 8.18,-25.951 11.862,-39.057 0.634,-2.255 0.349,-5.089 -0.408,-7.357 -2.735,-8.188 -5.853,-16.249 -8.827,-24.358 0.283,-0.116 0.565,-0.232 0.847,-0.348 0.511,0.992 1.071,1.961 1.523,2.979 1.902,4.283 3.35,8.831 5.729,12.827 8.216,13.804 16.593,27.519 25.224,41.068 5.499,8.634 8.856,17.476 8.034,28.051 -1.414,18.195 -5.728,35.619 -12.193,52.573 -2.137,5.606 -6.544,9.33 -12.474,9.432 -4.788,0.083 -9.957,-0.789 -14.335,-2.678 -7.714,-3.329 -15.028,-7.625 -22.363,-11.775 -4.269,-2.415 -8.254,-5.332 -12.367,-8.023 0.23,-0.396 0.46,-0.791 0.689,-1.186 4.62,2.112 9.239,4.224 13.065,5.973 m 81.251,-231.105 c -0.149,1.457 -0.236,2.924 -0.46,4.369 -0.403,2.609 1.063,3.87 3.185,3.032 6.879,-2.719 13.759,-5.528 20.31,-8.934 2.277,-1.184 3.887,-4.039 5.289,-6.432 2.295,-3.917 0.429,-7.034 -4.07,-6.549 -5.124,0.553 -10.164,1.857 -15.255,2.756 -2.236,0.395 -4.507,0.593 -6.762,0.881 0.387,-2.133 0.652,-4.297 1.19,-6.39 0.766,-2.98 0.986,-5.806 -1.15,-8.352 -0.15,-0.178 -0.344,-0.393 -0.357,-0.6 -0.389,-6.348 -5.123,-6.477 -9.445,-5.959 -16.336,1.961 -32.635,4.23 -48.931,6.498 -3.15,0.439 -5.821,1.848 -6.765,5.344 -1.019,3.773 0.519,6.331 4.377,6.802 2.448,0.299 4.928,0.506 7.39,0.479 8.351,-0.092 13.523,5.933 19.406,10.34 1.294,0.97 1.298,4.328 1.075,6.502 -0.343,3.346 -1.389,6.621 -2.159,9.921 -0.105,0.451 -0.244,0.951 -0.527,1.297 -7.32,8.951 -10.203,20.035 -14.445,30.428 -4.785,11.727 -9.027,23.675 -13.509,35.526 -0.498,1.316 -1.004,2.63 -1.54,3.932 -0.07,0.171 -0.342,0.261 -1.123,0.819 0.438,-3.231 0.81,-5.978 1.182,-8.726 -0.202,-0.081 -0.404,-0.162 -0.607,-0.243 -3.482,5.943 -7.001,11.866 -10.44,17.834 -7.271,12.615 -14.589,25.205 -21.707,37.907 -3.312,5.91 -8.241,10.194 -13.364,14.311 -2.74,2.201 -7.042,1.101 -8.688,-2.128 -7.143,-14.017 -15.35,-27.593 -19.317,-42.998 -2.077,-8.064 -3.693,-16.271 -4.996,-24.497 -0.437,-2.759 0.535,-5.821 1.209,-8.663 4.967,-20.931 10.045,-41.835 15.01,-62.766 0.511,-2.154 0.753,-4.434 0.698,-6.645 -0.093,-3.73 -1.572,-7.023 -4.952,-8.812 -3.912,-2.07 -7.866,-4.076 -12.596,-4.04 -1.952,0.014 -4.045,-1.092 -5.846,-2.096 -4.522,-2.522 -9.164,-1.903 -13.705,-0.573 -4.037,1.182 -5.135,5.881 -2.451,9.145 0.448,0.544 0.91,1.095 1.447,1.543 5.434,4.533 6.559,10.034 6.174,17.171 -0.699,12.949 -4.486,25.104 -7.542,37.443 -2.47,9.971 -5.862,19.726 -9.112,29.487 -4.817,14.465 -3.722,28.705 1.128,42.865 4.179,12.204 8.801,24.27 12.543,36.605 3.327,10.969 5.987,22.166 8.354,33.386 0.702,3.329 -0.588,7.078 -1.001,10.975 3.338,1.134 7.132,2.422 10.925,3.71 -0.043,0.267 -0.086,0.533 -0.129,0.8 -3.761,0 -7.544,-0.256 -11.278,0.064 -4.651,0.399 -7.563,3.777 -7.853,8.453 -0.037,0.586 0.008,1.178 -0.03,1.764 -0.325,5.03 0.144,9.556 6.557,10.631 -1.036,0.13 -2.071,0.26 -3.308,0.415 -1.241,7.857 -4.249,14.901 -8.385,21.575 -0.865,1.394 -0.126,3.782 -0.126,6.415 -1.262,-1.937 -2.295,-3.492 -3.298,-5.067 -2.576,-4.044 -5.202,-8.06 -7.685,-12.161 -1.637,-2.704 -3.331,-5.425 -4.534,-8.331 -6.042,-14.594 -14.178,-27.885 -24.711,-39.633 -5.271,-5.879 -9.006,-12.162 -9.399,-20.331 -0.165,-3.441 -1.512,-6.874 -2.648,-10.199 -0.61,-1.786 -1.911,-3.337 -2.9,-4.994 -0.337,0.069 -0.674,0.138 -1.011,0.207 -0.133,1.147 -0.402,2.297 -0.372,3.44 0.071,2.69 -1.033,3.587 -3.24,2.09 -2.41,-1.635 -4.5,-3.75 -6.699,-5.69 -2.72,-2.398 -5.327,-4.935 -8.159,-7.19 -0.937,-0.746 -2.422,-0.804 -4.348,-1.384 0.552,1.45 0.687,2.134 1.039,2.678 4.715,7.294 9.614,14.473 14.132,21.886 2.25,3.692 4.186,7.671 5.626,11.746 6.162,17.431 13.213,34.432 21.696,50.9 5.991,11.63 9.956,24.128 11.813,37.181 0.254,1.784 0.409,3.582 -0.086,5.552 -0.541,-0.829 -1.081,-1.658 -1.983,-3.041 -1.914,1.255 -3.958,2.305 -5.639,3.77 -2.202,1.918 -4.175,4.112 -6.138,6.284 -2.066,2.287 -2.405,4.595 -0.21,7.199 1.145,1.357 1.682,3.226 1.921,5.602 -2.585,-0.946 -5.17,-1.891 -6.855,-2.508 -1.595,1.228 -2.618,2.419 -3.91,2.93 -2.972,1.176 -6.656,5.885 -6.972,9.095 -0.362,3.666 -1.108,6.902 2.025,10.368 2.413,2.669 2.839,7.097 4.316,10.673 0.365,0.884 1.289,2.002 2.113,2.153 4.074,0.744 8.19,1.322 12.314,1.717 3.24,0.31 6.581,-0.081 9.747,0.523 1.661,0.317 3.041,2.102 5.435,3.886 -7.301,2.147 -13.393,3.944 -19.489,5.727 -0.672,0.197 -1.426,0.201 -2.032,0.511 -0.539,0.275 -0.924,0.849 -1.378,1.292 0.624,0.314 1.262,0.928 1.869,0.898 6.332,-0.317 12.699,-0.424 18.975,-1.227 5.262,-0.673 10.035,0.287 13.965,3.481 4.332,3.521 8.215,7.636 12.039,11.731 3.282,3.515 6.021,7.54 9.325,11.034 7.639,8.08 17.421,7.973 27.545,7.185 5.972,-0.464 9.563,-3.558 11.762,-8.521 2.057,-4.642 4.555,-9.244 2.997,-14.824 -0.414,-1.487 0.689,-3.731 1.706,-5.207 1.653,-2.402 2.584,-4.369 0.85,-7.297 -0.891,-1.506 -0.546,-3.829 -0.516,-5.779 0.125,-7.978 -0.548,-8.943 -8.156,-11.105 -5.522,-1.57 -7.898,-4.872 -6.825,-10.062 0.293,-1.416 1.346,-2.995 2.522,-3.855 6.584,-4.817 14.484,-6.051 22.23,-7.169 5.219,-0.753 9.278,-3.34 13.169,-6.272 5.33,-4.015 10.288,-8.524 15.549,-12.942 -2.372,-2.907 -4.899,-6.003 -7.425,-9.099 0.234,-0.216 0.468,-0.432 0.702,-0.648 4.371,3.802 8.674,7.684 13.127,11.388 7.29,6.065 14.427,12.363 22.118,17.88 4.604,3.302 10.174,5.238 15.233,7.933 1.418,0.756 2.695,1.901 3.807,3.084 2.674,2.842 2.392,6.053 -1.013,7.864 -2.855,1.519 -6.009,2.615 -9.154,3.414 -3.365,0.854 -4.484,2.636 -5.098,6.066 -0.807,4.508 -2.948,8.77 -4.386,13.179 -0.37,1.134 -0.827,2.918 -0.27,3.565 3.825,4.442 5.725,9.308 5.667,15.309 -0.042,4.477 1.062,8.991 1.921,13.437 0.238,1.233 1.168,2.688 2.217,3.354 8.476,5.38 25.659,10.736 37.178,3.548 5.407,-3.375 9.002,-8.031 9.659,-14.752 1.148,-11.736 -1.176,-22.949 -4.68,-33.994 -1.325,-4.178 -0.545,-6.932 3.741,-8.277 6.939,-2.176 13.993,-4.018 21.064,-5.728 8.812,-2.132 16.296,-6.031 22.331,-13.144 11.71,-13.799 23.827,-27.254 35.888,-40.751 6.562,-7.342 13.95,-14.026 19.874,-21.834 5.725,-7.545 10.121,-16.11 14.968,-24.305 4.146,-7.008 9.839,-11.327 18.16,-12.438 4.721,-0.63 9.409,-2.13 13.87,-3.86 2.672,-1.037 5.679,-2.498 5.766,-6.343 0.058,-2.576 -0.906,-3.187 -3.424,-2.798 -6.36,0.982 -12.757,1.734 -19.153,2.459 -2.639,0.299 -5.454,0.505 -4.894,-4.434 -6.401,2.457 -10.732,6.104 -14.142,11.237 -3.624,5.458 -7.474,10.788 -11.554,15.912 -2.252,2.827 -5.298,5.005 -7.779,7.668 -6.162,6.611 -12.161,13.375 -18.327,19.982 -1.662,1.781 -3.568,3.396 -5.572,4.785 -5.395,3.743 -10.634,7.851 -16.447,10.81 -5.094,2.592 -7.057,6.511 -7.994,11.568 -0.119,0.645 -0.516,1.237 -1.632,1.721 0.603,-4.978 1.1,-9.972 1.83,-14.931 1.865,-12.674 3.888,-25.324 5.746,-37.998 2.035,-13.874 6.555,-27.013 11.237,-40.157 2.417,-6.785 3.663,-13.981 5.62,-20.94 1.428,-5.079 3.138,-10.079 4.748,-15.106 2.009,-6.272 4.325,-12.461 6.002,-18.819 2.719,-10.308 7.847,-19.074 14.399,-27.489 13.199,-16.952 26.825,-33.738 34.836,-54.074 2.534,-6.431 4.813,-12.974 7.607,-19.289 3.705,-8.372 7.772,-16.585 11.74,-24.839 2.988,-6.216 6.764,-11.656 12.877,-15.444 3.792,-2.349 4.18,-5.847 0.987,-8.955 -3.827,-3.727 -8.115,-7.205 -12.753,-9.816 -5.033,-2.833 -11.037,-0.25 -13.571,4.995 -1.07,2.216 -1.682,4.654 -2.749,6.872 -4.254,8.839 -8.316,17.79 -13.044,26.372 -2.35,4.267 -6.235,7.657 -8.997,11.735 -8.367,12.355 -16.814,24.673 -24.672,37.352 -6.065,9.787 -14.386,17.401 -22.663,24.991 -11.435,10.485 -23.393,20.412 -35.36,30.295 -4.327,3.574 -9.369,6.274 -14.004,9.49 -2.061,1.43 -3.541,0.387 -5.06,-0.774 -10.003,-7.638 -20.002,-15.281 -29.979,-22.953 -4.841,-3.724 -9.748,-7.379 -14.352,-11.379 -0.987,-0.857 -1.405,-3.226 -1.046,-4.634 1.848,-7.25 3.873,-14.465 6.142,-21.596 3.351,-10.528 7.207,-20.901 10.359,-31.485 1.728,-5.803 2.237,-11.959 3.711,-17.851 0.911,-3.641 2.604,-7.085 3.946,-10.618 0.37,0.105 0.741,0.21 1.111,0.315"
       style="fill:#212121;fill-opacity:1;fill-rule:nonzero;stroke:none"
       transform="matrix(0.14560846,0,0,-0.14560846,84.485164,48.736397)"
       clip-path="url(#clipPath6)"
       inkscape:export-filename="aw-simple-white.svg"
       inkscape:export-xdpi="96"
       inkscape:export-ydpi="96" />
    <path
       id="path67"
       d="m 0,0 c -0.768,3.09 -1.471,5.25 -1.83,7.466 -3.455,21.351 -3.376,42.877 -2.625,64.379 1.132,32.403 6.214,64.26 14.624,95.566 18.583,69.171 51.779,130.536 99.296,184.048 47.374,53.35 104.324,93.009 171.344,117.851 32.852,12.177 66.776,19.815 101.652,23.395 26.523,2.722 53.043,2.944 79.546,0.42 46.678,-4.444 90.953,-17.468 132.88,-38.399 46.286,-23.106 87.5,-53.136 122.876,-90.979 32.81,-35.098 57.414,-75.369 75.242,-119.901 13.737,-34.313 23.147,-69.697 26.793,-106.531 2.205,-22.278 2.19,-44.559 0.705,-66.909 -1.318,-19.853 -3.635,-39.527 -7.68,-58.992 -0.792,-3.812 -2.208,-7.494 -3.336,-11.236 -0.468,0.075 -0.936,0.15 -1.404,0.224 0,1.257 -0.179,2.544 0.027,3.766 3.006,17.817 3.191,35.813 3.216,53.793 0.038,27.513 -0.497,55.002 -5.355,82.214 -10.387,58.179 -31.42,111.921 -66.11,160.078 -24.939,34.621 -54.16,64.971 -88.94,89.79 -35.206,25.123 -74.139,42.22 -115.873,53.178 -38.423,10.089 -77.501,14.745 -117.201,13.94 C 350.139,455.789 286.543,438.51 226.807,406.917 160.646,371.925 106.547,323.508 65.864,260.503 36.21,214.578 16.43,164.681 6.702,110.835 0.755,77.915 -0.072,44.724 1.22,11.409 1.343,8.241 1.329,5.067 1.329,1.896 1.329,1.62 0.96,1.343 0,0"
       style="fill:#5ce1e6;fill-opacity:1;fill-rule:nonzero;stroke:none"
       transform="matrix(0.14560846,0,0,-0.14560846,48.232222,89.497746)"
       clip-path="url(#clipPath68)" />
  </g>
</svg>
